<svg width="84" height="84" viewBox="0 0 84 84" fill="none" xmlns="http://www.w3.org/2000/svg">
<rect x="0.5" y="0.5" width="83" height="83" rx="29.5" stroke="white"/>
<g filter="url(#filter0_b_48_59)">
<path d="M42.3781 58.6313L41.5184 59.1421L41.5239 59.1512L42.3781 58.6313ZM40.9648 55.5516L40.0126 55.8568L40.0149 55.8642L40.0174 55.8715L40.9648 55.5516ZM40.1844 52.1766L39.1932 52.3095L39.1949 52.3214L40.1844 52.1766ZM40.2055 45.3844L41.1952 45.5275L41.1954 45.5258L40.2055 45.3844ZM47.4617 34.6266L47.1067 33.6917L47.1027 33.6932L47.4617 34.6266ZM54.6547 34.6266L54.27 35.5497L54.2811 35.5542L54.6547 34.6266ZM57.3125 36.3352L56.6189 37.0555L56.6256 37.062L56.6326 37.0684L57.3125 36.3352ZM60.6242 41.9672L59.6684 42.2613L59.6719 42.2724L60.6242 41.9672ZM61.3836 45.3844L60.392 45.5142L60.3939 45.5275L61.3836 45.3844ZM61.4047 52.2609L62.3958 52.3939L62.396 52.3923L61.4047 52.2609ZM60.6453 55.6359L59.693 55.3307L59.6906 55.3384L60.6453 55.6359ZM59.3164 58.7156L58.4458 58.2236L58.4435 58.2278L59.3164 58.7156ZM54.6758 62.9344L55.0494 63.862L55.0604 63.8575L54.6758 62.9344ZM51.9547 34.9008L52.0324 33.9038L51.9547 33.8978L51.877 33.9038L51.9547 34.9008ZM46.7867 37.3899L47.5158 38.0743L47.5226 38.0669L46.7867 37.3899ZM45.1203 39.7734L44.2315 39.3152L44.2287 39.3206L45.1203 39.7734ZM44.0023 42.6L43.0433 42.3164L43.0398 42.3289L44.0023 42.6ZM43.3695 45.7008L42.378 45.5703L42.3767 45.5816L43.3695 45.7008ZM43.3695 51.9656L42.3765 52.0832L42.3773 52.0905L42.3783 52.0978L43.3695 51.9656ZM45.1414 57.8719L44.2498 58.3248L44.2556 58.3359L45.1414 57.8719ZM46.8078 60.2344L46.0787 60.9188L46.0859 60.9265L46.0933 60.934L46.8078 60.2344ZM49.0648 61.8797L48.6176 62.7741L48.6235 62.7771L49.0648 61.8797ZM51.9547 62.6391L51.876 63.636L51.9537 63.6421L52.0314 63.6361L51.9547 62.6391ZM54.8867 61.8797L55.3281 62.7771L55.3398 62.7712L54.8867 61.8797ZM57.1438 60.2133L56.4221 59.5211L56.4218 59.5214L57.1438 60.2133ZM58.8102 57.8508L57.9213 57.3925L57.9186 57.3979L58.8102 57.8508ZM59.9281 55.0242L58.9692 54.7406L58.9666 54.7495L59.9281 55.0242ZM60.5609 51.9445L59.5694 51.8141L59.5681 51.8254L60.5609 51.9445ZM60.5609 45.7008L59.5679 45.8184L59.5687 45.8257L59.5697 45.833L60.5609 45.7008ZM59.9281 42.6L58.9646 42.8677L58.9668 42.8757L58.9692 42.8836L59.9281 42.6ZM58.8102 39.7524L57.9157 40.1996L57.9199 40.208L57.9243 40.2164L58.8102 39.7524ZM57.1438 37.3688L56.4146 38.0532L56.4221 38.061L57.1438 37.3688ZM54.8656 35.6813L54.4126 36.5728L54.4184 36.5757L54.8656 35.6813ZM68.1547 72.7641L69.1101 72.4688L68.9581 71.9771L68.4696 71.815L68.1547 72.7641ZM68.0281 75.3375V76.3375H68.7421L68.9739 75.6622L68.0281 75.3375ZM55.5406 73.207L55.1514 74.1282L55.1527 74.1287L55.5406 73.207ZM47.3773 65.5922L48.2464 65.0975L48.0188 64.6977L47.5671 64.6104L47.3773 65.5922ZM38.5813 61.057L37.8818 61.7718L37.8897 61.7794L38.5813 61.057ZM35.5016 56.0156L34.5594 56.3508L34.5601 56.3528L35.5016 56.0156ZM35.5227 41.8195L36.4606 42.1664L36.4613 42.1644L35.5227 41.8195ZM42.4625 33.7828L42.9323 34.6656L42.9352 34.6641L42.4625 33.7828ZM46.9133 32.0953L47.1169 33.0744L47.1241 33.0728L46.9133 32.0953ZM58.3461 32.6227L58.0524 33.5786L58.0542 33.5791L58.3461 32.6227ZM64.168 35.6602L63.5456 36.4429L63.5496 36.446L64.168 35.6602ZM68.1547 41.0602L67.2323 41.4464L67.2352 41.4534L68.1547 41.0602ZM68.6188 55.5094L69.5688 55.8215L69.5694 55.8195L68.6188 55.5094ZM65.9398 60.382L65.1929 59.7172L65.9398 60.382ZM62.2273 63.4617L61.7263 62.5963L61.7223 62.5986L62.2273 63.4617ZM57.882 65.2758L57.6153 64.312L56.4573 64.6325L56.9827 65.7131L57.882 65.2758ZM61.2148 69.3891L60.5812 70.1627L60.5848 70.1656L61.2148 69.3891ZM67.5008 73.4813L68.4199 73.0873L68.2374 72.6614L67.7943 72.5253L67.5008 73.4813ZM62.7969 71.5406L62.3136 72.4161L62.7969 71.5406ZM59.4641 69.0727L58.7456 69.7683L58.7458 69.7685L59.4641 69.0727ZM57.4602 66.7313L56.636 67.2978L56.6441 67.3093L57.4602 66.7313ZM56.068 64.3688L55.7443 63.4226L54.6483 63.7975L55.1792 64.8271L56.068 64.3688ZM61.6578 61.1836L62.3077 61.9437L62.314 61.9382L61.6578 61.1836ZM64.0836 58.3359L64.936 58.8588L64.9391 58.8538L64.0836 58.3359ZM65.6867 54.2859L64.7206 54.0278L64.7186 54.0356L65.6867 54.2859ZM65.3281 42.1781L64.3822 42.5025L64.3829 42.5045L65.3281 42.1781ZM55.0344 32.9391L54.8095 33.9135L54.8219 33.9163L55.0344 32.9391ZM47.1664 32.9391L47.3704 33.9181L47.3801 33.916L47.1664 32.9391ZM42.9266 34.5211L42.4626 33.6353L42.4591 33.6371L42.9266 34.5211ZM39.0664 37.4531L38.338 36.768L39.0664 37.4531ZM36.3242 42.1781L37.263 42.5226L37.2638 42.5204L36.3242 42.1781ZM39.4883 60.4453L38.7642 61.1351L38.7659 61.1369L39.4883 60.4453ZM50.9633 65.0649L51.8577 64.6176L51.5885 64.0792L50.9867 64.0651L50.9633 65.0649ZM67.4586 74.4727L67.429 75.4722L68.1129 75.4925L68.3796 74.8623L67.4586 74.4727ZM51.2164 62.5461C49.8943 62.5461 48.7523 62.3497 47.7745 61.9784L47.0645 63.8482C48.3086 64.3206 49.6979 64.5461 51.2164 64.5461V62.5461ZM47.7745 61.9784C46.7675 61.596 45.9028 61.0795 45.1698 60.4334L43.8474 61.9338C44.7737 62.7503 45.8497 63.3868 47.0645 63.8482L47.7745 61.9784ZM45.1698 60.4334C44.4177 59.7705 43.772 58.998 43.2323 58.1113L41.5239 59.1512C42.1655 60.2052 42.9401 61.1342 43.8474 61.9338L45.1698 60.4334ZM43.2378 58.1204C42.6976 57.2113 42.2557 56.2488 41.9123 55.2317L40.0174 55.8715C40.4052 57.02 40.9056 58.1106 41.5184 59.1421L43.2378 58.1204ZM41.9171 55.2464C41.5825 54.2025 41.3347 53.1311 41.1738 52.0318L39.1949 52.3214C39.3715 53.5283 39.644 54.7069 40.0126 55.8568L41.9171 55.2464ZM41.1755 52.0436C41.0263 50.9313 40.9523 49.8579 40.9523 48.8227H38.9523C38.9523 49.9531 39.0331 51.1156 39.1933 52.3095L41.1755 52.0436ZM40.9523 48.8227C40.9523 47.7478 41.033 46.6495 41.1952 45.5275L39.2158 45.2413C39.0405 46.4536 38.9523 47.6475 38.9523 48.8227H40.9523ZM41.1954 45.5258C41.356 44.402 41.6097 43.3216 41.9557 42.2834L40.0583 41.651C39.6732 42.8066 39.3925 44.0042 39.2155 45.243L41.1954 45.5258ZM41.9557 42.2834C42.298 41.2565 42.7447 40.2914 43.2956 39.3864L41.5872 38.3465C40.9568 39.3821 40.4473 40.4841 40.0583 41.651L41.9557 42.2834ZM43.2956 39.3864C43.8341 38.5016 44.4776 37.7385 45.2258 37.0917L43.9179 35.5786C43.0068 36.3662 42.2299 37.2906 41.5872 38.3465L43.2956 39.3864ZM45.2258 37.0917C45.9621 36.4553 46.8239 35.9433 47.8207 35.5599L47.1027 33.6932C45.9058 34.1536 44.8411 34.7807 43.9179 35.5786L45.2258 37.0917ZM47.8167 35.5614C48.7966 35.1893 49.9251 34.9938 51.2164 34.9938V32.9938C49.7233 32.9938 48.3487 33.2201 47.1067 33.6917L47.8167 35.5614ZM51.2164 34.9938C52.3858 34.9938 53.398 35.1863 54.2701 35.5497L55.0393 33.7035C53.8864 33.2231 52.6064 32.9938 51.2164 32.9938V34.9938ZM54.2811 35.5542C55.1789 35.9158 55.9552 36.4164 56.6189 37.0555L58.0061 35.6148C57.1511 34.7915 56.1555 34.153 55.0283 33.699L54.2811 35.5542ZM56.6326 37.0684C57.3262 37.7116 57.9242 38.4728 58.4247 39.3585L60.1659 38.3744C59.5696 37.3194 58.8457 36.3931 57.9924 35.6019L56.6326 37.0684ZM58.4247 39.3585C58.9367 40.2642 59.3515 41.2312 59.6684 42.2613L61.58 41.6731C61.2219 40.5094 60.7508 39.4092 60.1659 38.3744L58.4247 39.3585ZM59.6719 42.2724C60.0046 43.3102 60.2449 44.3905 60.3921 45.5142L62.3751 45.2545C62.2129 44.0158 61.947 42.8179 61.5765 41.662L59.6719 42.2724ZM60.3939 45.5275C60.5561 46.6495 60.6367 47.7478 60.6367 48.8227H62.6367C62.6367 47.6475 62.5486 46.4536 62.3733 45.2413L60.3939 45.5275ZM60.6367 48.8227C60.6367 49.9017 60.5625 51.0039 60.4134 52.1296L62.396 52.3923C62.5562 51.1836 62.6367 49.9936 62.6367 48.8227H60.6367ZM60.4136 52.128C60.2666 53.2233 60.0264 54.2906 59.693 55.3307L61.5976 55.9412C61.9673 54.7876 62.2334 53.6049 62.3958 52.3939L60.4136 52.128ZM59.6906 55.3384C59.3738 56.3548 58.9588 57.316 58.4458 58.2236L60.187 59.2077C60.7709 58.1746 61.2418 57.0828 61.6 55.9335L59.6906 55.3384ZM58.4435 58.2278C57.9582 59.0962 57.3685 59.8493 56.6747 60.4925L58.0346 61.9591C58.8878 61.168 59.6059 60.2476 60.1894 59.2035L58.4435 58.2278ZM56.6747 60.4925C55.9912 61.1263 55.1992 61.633 54.2912 62.0113L55.0604 63.8575C56.1774 63.3921 57.1713 62.7596 58.0346 61.9591L56.6747 60.4925ZM54.3022 62.0068C53.4282 62.3588 52.4054 62.5461 51.2164 62.5461V64.5461C52.6149 64.5461 53.8983 64.3256 55.0494 63.862L54.3022 62.0068ZM51.877 33.9038C50.6801 33.9971 49.5796 34.2872 48.5907 34.7898L49.4968 36.5727C50.2235 36.2034 51.0636 35.9733 52.0324 35.8978L51.877 33.9038ZM48.5907 34.7898C47.6273 35.2794 46.779 35.9213 46.0508 36.7128L47.5226 38.0669C48.0882 37.4522 48.7445 36.955 49.4968 36.5727L48.5907 34.7898ZM46.0576 36.7054C45.3429 37.4667 44.735 38.3386 44.2315 39.3152L46.0091 40.2317C46.4337 39.4083 46.9368 38.6911 47.5158 38.0743L46.0576 36.7054ZM44.2287 39.3206C43.7499 40.2633 43.3552 41.2624 43.0434 42.3164L44.9613 42.8836C45.2402 41.9408 45.5907 41.0555 46.0119 40.2263L44.2287 39.3206ZM43.0398 42.3289C42.7451 43.3752 42.5247 44.4559 42.3781 45.5703L44.361 45.8312C44.4956 44.8082 44.6971 43.8217 44.9649 42.8711L43.0398 42.3289ZM42.3767 45.5816C42.2455 46.6745 42.1797 47.7549 42.1797 48.8227H44.1797C44.1797 47.8373 44.2404 46.8365 44.3624 45.8199L42.3767 45.5816ZM42.1797 48.8227C42.1797 49.8904 42.2455 50.9773 42.3765 52.0832L44.3626 51.848C44.2404 50.8164 44.1797 49.8081 44.1797 48.8227H42.1797ZM42.3783 52.0978C42.5256 53.2026 42.7542 54.2799 43.0645 55.329L44.9824 54.7617C44.702 53.8139 44.4947 52.838 44.3608 51.8335L42.3783 52.0978ZM43.0645 55.329C43.3763 56.383 43.771 57.382 44.2498 58.3248L46.033 57.419C45.6118 56.5899 45.2612 55.7046 44.9824 54.7617L43.0645 55.329ZM44.2556 58.3359C44.7592 59.2974 45.3664 60.16 46.0787 60.9188L47.5369 59.5499C46.9555 58.9307 46.4517 58.2182 46.0272 57.4079L44.2556 58.3359ZM46.0933 60.934C46.8318 61.6882 47.6744 62.3025 48.6176 62.7741L49.5121 60.9853C48.7677 60.6131 48.1057 60.1306 47.5223 59.5348L46.0933 60.934ZM48.6235 62.7771C49.6078 63.2611 50.6964 63.5429 51.876 63.636L52.0334 61.6422C51.0755 61.5666 50.2375 61.342 49.5062 60.9823L48.6235 62.7771ZM52.0314 63.6361C53.2361 63.5435 54.3403 63.2628 55.328 62.7771L54.4454 60.9823C53.7176 61.3403 52.867 61.5659 51.878 61.642L52.0314 63.6361ZM55.3398 62.7712C56.2948 62.2858 57.1388 61.6637 57.8657 60.9052L56.4218 59.5214C55.8549 60.1128 55.1942 60.6017 54.4337 60.9882L55.3398 62.7712ZM57.8654 60.9055C58.5972 60.1426 59.209 59.2737 59.7017 58.3037L57.9186 57.3979C57.5113 58.1997 57.0122 58.9059 56.4221 59.5211L57.8654 60.9055ZM59.699 58.3091C60.1936 57.3498 60.5905 56.3461 60.8897 55.299L58.9666 54.7495C58.7033 55.6712 58.3548 56.5518 57.9214 57.3925L59.699 58.3091ZM60.8871 55.3079C61.1986 54.2546 61.4207 53.1729 61.5538 52.0637L59.5681 51.8254C59.448 52.8255 59.2483 53.797 58.9692 54.7406L60.8871 55.3079ZM61.5524 52.075C61.6983 50.9658 61.7719 49.8815 61.7719 48.8227H59.7719C59.7719 49.7888 59.7048 50.7858 59.5695 51.8141L61.5524 52.075ZM61.7719 48.8227C61.7719 47.7503 61.6984 46.6655 61.5522 45.5686L59.5697 45.833C59.7047 46.8454 59.7719 47.8419 59.7719 48.8227H61.7719ZM61.554 45.5832C61.421 44.4601 61.199 43.3709 60.8871 42.3164L58.9692 42.8836C59.2479 43.826 59.4477 44.804 59.5679 45.8184L61.554 45.5832ZM60.8916 42.3324C60.5925 41.2553 60.1944 40.2399 59.696 39.2883L57.9243 40.2164C58.354 41.0367 58.7013 41.9197 58.9646 42.8677L60.8916 42.3324ZM59.7046 39.3051C59.2121 38.3201 58.5996 37.4419 57.8654 36.6765L56.4221 38.061C57.0098 38.6737 57.5082 39.3846 57.9157 40.1996L59.7046 39.3051ZM57.8728 36.6843C57.1426 35.9065 56.287 35.2739 55.3128 34.7868L54.4184 36.5757C55.188 36.9605 55.8512 37.4529 56.4147 38.0532L57.8728 36.6843ZM55.3187 34.7898C54.3298 34.2872 53.2292 33.9971 52.0324 33.9038L51.877 35.8978C52.8458 35.9733 53.6859 36.2034 54.4126 36.5727L55.3187 34.7898ZM67.1993 73.0594C67.3625 73.5876 67.3531 74.2241 67.0823 75.0128L68.9739 75.6622C69.3501 74.5666 69.425 73.4875 69.1101 72.4688L67.1993 73.0594ZM68.0281 74.3375C63.1672 74.3375 59.1457 73.6392 55.9285 72.2853L55.1527 74.1287C58.6855 75.6155 62.989 76.3375 68.0281 76.3375V74.3375ZM55.9299 72.2859C52.8015 70.9639 50.2363 68.5933 48.2464 65.0975L46.5083 66.0869C48.6809 69.9036 51.5579 72.6096 55.1514 74.1282L55.9299 72.2859ZM47.5671 64.6104C45.9775 64.3031 44.5108 63.8108 43.1628 63.1368L42.2684 64.9257C43.7892 65.6861 45.4304 66.2344 47.1876 66.574L47.5671 64.6104ZM43.1628 63.1368C41.8297 62.4703 40.5324 61.5407 39.2728 60.3347L37.8897 61.7794C39.2739 63.1047 40.7328 64.1579 42.2684 64.9257L43.1628 63.1368ZM39.2806 60.3423C38.1013 59.1883 37.1477 57.6464 36.443 55.6785L34.5601 56.3528C35.346 58.5473 36.4456 60.3664 37.8819 61.7718L39.2806 60.3423ZM36.4437 55.6805C35.7439 53.713 35.3836 51.4321 35.3836 48.8227H33.3836C33.3836 51.6132 33.7686 54.1276 34.5594 56.3508L36.4437 55.6805ZM35.3836 48.8227C35.3836 46.303 35.7494 44.0892 36.4606 42.1664L34.5848 41.4726C33.7772 43.6561 33.3836 46.1111 33.3836 48.8227H35.3836ZM36.4613 42.1644C37.1872 40.1883 38.0885 38.6635 39.14 37.5486L37.685 36.1764C36.4021 37.5366 35.3768 39.3164 34.584 41.4747L36.4613 42.1644ZM39.14 37.5486C40.231 36.3919 41.4935 35.4312 42.9322 34.6656L41.9928 32.9C40.3659 33.7657 38.9284 34.8581 37.685 36.1764L39.14 37.5486ZM42.9352 34.6641C44.4146 33.8706 45.8077 33.3466 47.1168 33.0744L46.7097 31.1163C45.1782 31.4347 43.6042 32.0357 41.9898 32.9016L42.9352 34.6641ZM47.1241 33.0728C48.4908 32.7781 49.8545 32.6313 51.2164 32.6313V30.6313C49.7095 30.6313 48.2045 30.7938 46.7024 31.1178L47.1241 33.0728ZM51.2164 32.6313C53.7336 32.6313 56.0095 32.951 58.0524 33.5786L58.6397 31.6668C56.3796 30.9724 53.9023 30.6313 51.2164 30.6313V32.6313ZM58.0542 33.5791C60.1038 34.2046 61.9315 35.1596 63.5456 36.4429L64.7903 34.8774C62.9732 33.4326 60.9197 32.3626 58.638 31.6662L58.0542 33.5791ZM63.5496 36.446C65.1164 37.6789 66.3479 39.3345 67.2323 41.4464L69.0771 40.6739C68.0771 38.2858 66.6508 36.3414 64.7864 34.8743L63.5496 36.446ZM67.2352 41.4534C68.1285 43.542 68.5891 45.9912 68.5891 48.8227H70.5891C70.5891 45.776 70.0934 43.0502 69.0741 40.6669L67.2352 41.4534ZM68.5891 48.8227C68.5891 51.2114 68.2768 53.3332 67.6681 55.1992L69.5694 55.8195C70.2544 53.7199 70.5891 51.3839 70.5891 48.8227H68.5891ZM67.6687 55.1972C67.0559 57.0624 66.2238 58.559 65.1929 59.7172L66.6868 61.0469C67.934 59.6457 68.8879 57.8938 69.5688 55.8215L67.6687 55.1972ZM65.1929 59.7172C64.1169 60.926 62.9606 61.8817 61.7263 62.5963L62.7284 64.3272C64.166 63.4949 65.4847 62.3975 66.6868 61.0469L65.1929 59.7172ZM61.7223 62.5986C60.48 63.3255 59.1124 63.8976 57.6153 64.312L58.1488 66.2396C59.8017 65.7821 61.3309 65.1448 62.7324 64.3248L61.7223 62.5986ZM56.9827 65.7131C57.7984 67.3907 59.0063 68.8728 60.5812 70.1627L61.8485 68.6154C60.4703 67.4866 59.4563 66.2265 58.7814 64.8385L56.9827 65.7131ZM60.5848 70.1656C62.2133 71.4869 64.6596 72.6579 67.8397 73.7132L68.4696 71.815C65.3779 70.789 63.1976 69.71 61.8449 68.6125L60.5848 70.1656ZM67.7943 72.5253C66.061 71.993 64.5588 71.3711 63.2802 70.6652L62.3136 72.4161C63.7349 73.2008 65.3687 73.8726 67.2072 74.4372L67.7943 72.5253ZM63.2802 70.6652C61.9978 69.9572 60.9715 69.1915 60.1823 68.3769L58.7458 69.7685C59.7004 70.7539 60.896 71.6335 62.3136 72.4161L63.2802 70.6652ZM60.1825 68.3771C59.3447 67.5118 58.7143 66.7718 58.2762 66.1532L56.6441 67.3093C57.1623 68.0408 57.8678 68.8616 58.7456 69.7683L60.1825 68.3771ZM58.2842 66.1647C57.8488 65.5314 57.4058 64.7814 56.9568 63.9105L55.1792 64.8271C55.6582 65.7561 56.1434 66.5812 56.6361 67.2978L58.2842 66.1647ZM56.3917 65.3149C57.506 64.9337 58.5165 64.4966 59.4186 64.0004L58.4548 62.248C57.6695 62.68 56.7675 63.0726 55.7443 63.4226L56.3917 65.3149ZM59.4186 64.0004C60.3379 63.4949 61.3012 62.8043 62.3077 61.9436L61.0079 60.4236C60.0738 61.2223 59.223 61.8255 58.4548 62.248L59.4186 64.0004ZM62.314 61.9382C63.3581 61.0303 64.2339 60.0036 64.936 58.8588L63.2312 57.8131C62.6396 58.7776 61.8981 59.6494 61.0016 60.429L62.314 61.9382ZM64.9391 58.8538C65.6504 57.6786 66.2165 56.2312 66.6549 54.5363L64.7186 54.0356C64.3132 55.6032 63.8106 56.8558 63.2281 57.8181L64.9391 58.8538ZM66.6528 54.5441C67.1151 52.8144 67.3406 50.9047 67.3406 48.8227H65.3406C65.3406 50.7625 65.1303 52.495 64.7206 54.0278L66.6528 54.5441ZM67.3406 48.8227C67.3406 46.2578 66.991 43.9298 66.2734 41.8517L64.3829 42.5045C65.0153 44.3359 65.3406 46.4375 65.3406 48.8227H67.3406ZM66.2741 41.8538C65.5688 39.7966 64.6461 38.0937 63.4795 36.7871L61.9877 38.1192C62.9304 39.175 63.7375 40.6221 64.3822 42.5025L66.2741 41.8538ZM63.4795 36.7871C62.3499 35.5219 61.0383 34.4744 59.5489 33.6469L58.5776 35.3953C59.8726 36.1147 61.0079 37.0218 61.9877 38.1192L63.4795 36.7871ZM59.5489 33.6469C58.0879 32.8353 56.6533 32.2676 55.2468 31.9619L54.8219 33.9163C56.003 34.173 57.2542 34.66 58.5776 35.3953L59.5489 33.6469ZM55.2592 31.9647C53.9086 31.653 52.5605 31.4961 51.2164 31.4961V33.4961C52.4036 33.4961 53.6008 33.6345 54.8095 33.9135L55.2592 31.9647ZM51.2164 31.4961C49.7929 31.4961 48.3712 31.6519 46.9527 31.9622L47.3801 33.916C48.6616 33.6357 49.9399 33.4961 51.2164 33.4961V31.4961ZM46.9625 31.9601C45.5053 32.2637 44.0046 32.8275 42.4626 33.6353L43.3906 35.4069C44.8016 34.6678 46.1275 34.177 47.3704 33.9181L46.9625 31.9601ZM42.4591 33.6371C40.9012 34.461 39.5259 35.5049 38.338 36.768L39.7949 38.1382C40.8288 37.0388 42.0269 36.1281 43.3941 35.4051L42.4591 33.6371ZM38.338 36.768C37.1113 38.0724 36.1352 39.7753 35.3846 41.8359L37.2638 42.5204C37.9476 40.6434 38.7997 39.1964 39.7949 38.1382L38.338 36.768ZM35.3854 41.8337C34.6209 43.9173 34.2484 46.2518 34.2484 48.8227H36.2484C36.2484 46.4436 36.5932 44.3483 37.263 42.5226L35.3854 41.8337ZM34.2484 48.8227C34.2484 53.8148 35.7312 57.9512 38.7642 61.1351L40.2123 59.7556C37.5922 57.0051 36.2484 53.393 36.2484 48.8227H34.2484ZM38.7659 61.1369C41.8208 64.3278 45.9147 65.947 50.9399 66.0646L50.9867 64.0651C46.3931 63.9577 42.837 62.4972 40.2106 59.7538L38.7659 61.1369ZM50.0689 65.5121C51.5154 68.4051 53.7977 70.7552 56.8668 72.5701L57.8848 70.8486C55.1039 69.2042 53.1112 67.1246 51.8577 64.6176L50.0689 65.5121ZM56.8668 72.5701C59.9538 74.3956 63.4834 75.3553 67.429 75.4722L67.4882 73.4731C63.84 73.365 60.6478 72.4825 57.8848 70.8486L56.8668 72.5701ZM68.3796 74.8623C68.6136 74.3091 68.6779 73.6893 68.4199 73.0873L66.5816 73.8752C66.5842 73.8811 66.5869 73.8879 66.5861 73.9081C66.585 73.9326 66.5775 73.9889 66.5376 74.083L68.3796 74.8623Z" fill="white"/>
</g>
<g filter="url(#filter1_b_48_59)">
<path d="M45.5688 55.6125L45.9669 56.5298L45.9696 56.5287L45.5688 55.6125ZM52.6844 49.8469L53.5079 50.4142L53.6844 50.158V49.8469H52.6844ZM52.3469 49.2281L51.7136 50.0021L51.73 50.0154L51.7469 50.0281L52.3469 49.2281ZM51.6438 48.975V47.975H51.1721L50.8721 48.339L51.6438 48.975ZM26.1906 48.8906L25.4244 49.5332L25.4282 49.5377L26.1906 48.8906ZM22.5625 29.1187L21.59 28.886L21.5885 28.892L22.5625 29.1187ZM24.9813 22.8469L24.1056 22.364L24.104 22.3669L24.9813 22.8469ZM29.6781 17.9812L29.1602 17.1258L29.1567 17.128L29.6781 17.9812ZM48.8031 22.2281L47.991 22.8115L47.9956 22.818L48.0004 22.8244L48.8031 22.2281ZM50.9969 25.6594L50.1025 26.1066L50.1077 26.117L50.1131 26.1273L50.9969 25.6594ZM52.7969 29.3156L51.8913 29.7398L52.2023 30.4037L52.9291 30.3068L52.7969 29.3156ZM53.8375 28.6969L54.7695 29.0593L54.8846 28.7633L54.8078 28.4551L53.8375 28.6969ZM47.5375 17.25L46.9401 18.0519L46.9462 18.0564L47.5375 17.25ZM31.4219 14.775L31.6409 15.7508L31.6504 15.7485L31.4219 14.775ZM25.7406 17.025L26.2248 17.9L26.2277 17.8984L25.7406 17.025ZM20.6219 21.0187L21.3504 21.7038L21.3544 21.6995L20.6219 21.0187ZM16.9656 27.2625L17.9028 27.6114L17.9036 27.6091L16.9656 27.2625ZM25.7406 54.7125L25.2564 55.5875L25.2665 55.593L25.7406 54.7125ZM31.4219 56.9062L31.6504 55.9327L31.6409 55.9305L31.4219 56.9062ZM52.0938 30.5812L51.1811 30.99L51.4926 31.6855L52.2458 31.5696L52.0938 30.5812ZM49.8719 26.1375L49.0036 26.6336L49.0071 26.6396L49.8719 26.1375ZM47.1719 22.2L46.3792 22.8097L46.3831 22.8146L47.1719 22.2ZM43.15 18.7969L42.69 19.6848L43.15 18.7969ZM37.9188 17.3344L38.0058 16.3382L37.923 16.3309L37.8401 16.3375L37.9188 17.3344ZM32.3219 19.3875L32.9174 20.1909L32.9234 20.1864L32.3219 19.3875ZM28.6094 23.9437L27.706 23.5149L27.7025 23.5224L28.6094 23.9437ZM26.6969 29.7375L25.7174 29.5361L25.716 29.5432L26.6969 29.7375ZM40.3375 52.9406L40.2899 53.9395L40.3383 53.9418L40.3866 53.9394L40.3375 52.9406ZM51.1094 47.8219V46.8219H50.6353L50.3352 47.1889L51.1094 47.8219ZM53.0219 48.5531L52.3543 49.2977L52.3616 49.3042L52.3689 49.3105L53.0219 48.5531ZM53.8375 50.2406L54.6617 50.8069L54.8375 50.551V50.2406H53.8375ZM31.1125 58.0312L31.3394 57.0573L31.3325 57.0557L31.1125 58.0312ZM25.15 55.725L24.6678 56.6011L24.6773 56.6062L25.15 55.725ZM15.8688 44.9812L14.9295 45.3245L14.9303 45.3266L15.8688 44.9812ZM15.925 26.5594L16.8608 26.9119L16.8616 26.9098L15.925 26.5594ZM25.5438 15.8437L25.9941 16.7366L26.0002 16.7335L25.5438 15.8437ZM31.8156 13.5937L32.0065 14.5754L32.0135 14.574L31.8156 13.5937ZM54.2313 15.5062L55.2001 15.7541L55.4795 14.6619L54.3617 14.5148L54.2313 15.5062ZM53.5 21.8906L52.5026 21.9619L52.5026 21.9626L53.5 21.8906ZM55.1031 28.5844L56.0006 29.0255L56.1865 28.6473L56.0456 28.2501L55.1031 28.5844ZM36.8219 58.5531C39.8268 58.5531 42.8775 57.8705 45.9669 56.5298L45.1707 54.6951C42.2975 55.942 39.517 56.5531 36.8219 56.5531V58.5531ZM45.9696 56.5287C49.1286 55.1466 51.6515 53.1089 53.5079 50.4142L51.8609 49.2796C50.2298 51.6473 48.0089 53.4534 45.1679 54.6963L45.9696 56.5287ZM53.6844 49.8469C53.6844 49.2371 53.3796 48.7527 52.9469 48.4281L51.7469 50.0281C51.7671 50.0433 51.7466 50.0331 51.7221 49.9882C51.7101 49.9662 51.7 49.9408 51.6932 49.9136C51.6864 49.8866 51.6844 49.8635 51.6844 49.8469H53.6844ZM52.9801 48.4542C52.5982 48.1417 52.1409 47.975 51.6438 47.975V49.975C51.6658 49.975 51.6749 49.9782 51.6777 49.9792C51.6807 49.9802 51.6923 49.9846 51.7136 50.0021L52.9801 48.4542ZM50.8721 48.339C48.2934 51.4678 44.4747 53.0937 39.2406 53.0937V55.0937C44.9191 55.0937 49.3692 53.3072 52.4155 49.611L50.8721 48.339ZM39.2406 53.0937C33.6939 53.0937 29.6584 51.4313 26.9531 48.2436L25.4282 49.5377C28.6104 53.2874 33.2749 55.0937 39.2406 55.0937V53.0937ZM26.9568 48.248C24.2034 44.9651 22.8031 40.871 22.8031 35.8969H20.8031C20.8031 41.2728 22.3278 45.8411 25.4244 49.5332L26.9568 48.248ZM22.8031 35.8969C22.8031 33.6257 23.0484 31.4425 23.5365 29.3454L21.5885 28.892C21.0642 31.145 20.8031 33.4806 20.8031 35.8969H22.8031ZM23.5351 29.3515C24.0393 27.2444 24.8134 25.2369 25.8585 23.3269L24.104 22.3669C22.9741 24.4318 22.1357 26.6056 21.59 28.886L23.5351 29.3515ZM25.857 23.3297C26.8762 21.4812 28.3173 19.9848 30.1996 18.8345L29.1567 17.128C26.989 18.4527 25.2988 20.2 24.1056 22.364L25.857 23.3297ZM30.1961 18.8367C32.063 17.7062 34.26 17.125 36.8219 17.125V15.125C33.9463 15.125 31.3808 15.7813 29.1602 17.1258L30.1961 18.8367ZM36.8219 17.125C38.5724 17.125 40.1695 17.3988 41.6225 17.935L42.315 16.0587C40.618 15.4325 38.7838 15.125 36.8219 15.125V17.125ZM41.6225 17.935C43.1292 18.491 44.3252 19.1309 45.2361 19.8393L46.464 18.2606C45.3498 17.3941 43.9584 16.6652 42.315 16.0587L41.6225 17.935ZM45.2361 19.8393C46.1554 20.5544 47.0759 21.5376 47.991 22.8115L49.6153 21.6447C48.6179 20.2561 47.5696 19.1206 46.464 18.2606L45.2361 19.8393ZM48.0004 22.8244C48.956 24.1108 49.6506 25.2028 50.1025 26.1066L51.8913 25.2122C51.3682 24.1659 50.6003 22.9705 49.6059 21.6318L48.0004 22.8244ZM50.1131 26.1273C50.6089 27.0638 51.2014 28.2666 51.8913 29.7398L53.7025 28.8915C53.0049 27.4021 52.3973 26.1674 51.8807 25.1915L50.1131 26.1273ZM52.9291 30.3068C53.6323 30.2131 54.4415 29.9028 54.7695 29.0593L52.9055 28.3344C52.9151 28.3097 52.9301 28.285 52.9477 28.265C52.9644 28.246 52.9749 28.241 52.9678 28.2451C52.9475 28.2572 52.8626 28.298 52.6647 28.3244L52.9291 30.3068ZM54.8078 28.4551C53.3977 22.7953 51.218 18.709 48.1289 16.4436L46.9462 18.0564C49.482 19.916 51.5024 23.461 52.8672 28.9386L54.8078 28.4551ZM48.1349 16.4481C45.1296 14.2092 41.3328 13.1281 36.8219 13.1281V15.1281C41.0109 15.1281 44.358 16.1283 46.9401 18.0519L48.1349 16.4481ZM36.8219 13.1281C34.9772 13.1281 33.1005 13.3539 31.1934 13.8014L31.6504 15.7485C33.4182 15.3336 35.1415 15.1281 36.8219 15.1281V13.1281ZM31.2029 13.7993C29.2561 14.2363 27.2724 15.0257 25.2536 16.1516L26.2277 17.8984C28.1088 16.8493 29.9127 16.1387 31.6409 15.7507L31.2029 13.7993ZM25.2564 16.15C23.234 17.2692 21.4437 18.6656 19.8894 20.338L21.3544 21.6995C22.7626 20.1843 24.3847 18.9183 26.2248 17.9L25.2564 16.15ZM19.8934 20.3336C18.2988 22.0292 17.018 24.2359 16.0276 26.9158L17.9036 27.6091C18.8257 25.114 19.9825 23.1583 21.3503 21.7038L19.8934 20.3336ZM16.0285 26.9136C15.0245 29.6106 14.5313 32.6093 14.5313 35.8969H16.5313C16.5313 32.8094 16.9943 30.0519 17.9028 27.6114L16.0285 26.9136ZM14.5313 35.8969C14.5313 39.1844 15.0245 42.1832 16.0285 44.8801L17.9028 44.1824C16.9943 41.7418 16.5313 38.9843 16.5313 35.8969H14.5313ZM16.0285 44.8801C17.0192 47.5416 18.3 49.7377 19.8934 51.432L21.3503 50.0618C19.9813 48.606 18.8246 46.6584 17.9028 44.1824L16.0285 44.8801ZM19.8934 51.432C21.4472 53.0841 23.2363 54.4695 25.2564 55.5875L26.2248 53.8375C24.3824 52.818 22.759 51.5596 21.3503 50.0618L19.8934 51.432ZM25.2665 55.593C27.2831 56.6788 29.2624 57.4463 31.2029 57.882L31.6409 55.9305C29.9064 55.5411 28.0982 54.8462 26.2147 53.832L25.2665 55.593ZM31.1934 57.8798C33.1005 58.3274 34.9772 58.5531 36.8219 58.5531V56.5531C35.1415 56.5531 33.4182 56.3476 31.6504 55.9327L31.1934 57.8798ZM53.0064 30.1725C52.1918 28.3538 51.4353 26.8385 50.7367 25.6354L49.0071 26.6396C49.6585 27.7615 50.3832 29.2087 51.1811 30.99L53.0064 30.1725ZM50.7401 25.6414C50.035 24.4074 49.1057 23.0547 47.9607 21.5853L46.3831 22.8146C47.4881 24.2327 48.3587 25.505 49.0036 26.6336L50.7401 25.6414ZM47.9645 21.5903C46.7551 20.0181 45.303 18.786 43.61 17.909L42.69 19.6848C44.1095 20.4202 45.3386 21.4569 46.3793 22.8097L47.9645 21.5903ZM43.61 17.909C41.926 17.0365 40.0534 16.5171 38.0058 16.3382L37.8317 18.3306C39.6466 18.4892 41.2615 18.9447 42.69 19.6848L43.61 17.909ZM37.8401 16.3375C35.5278 16.52 33.4775 17.2656 31.7204 18.5886L32.9234 20.1864C34.3538 19.1093 36.0347 18.4862 37.9975 18.3313L37.8401 16.3375ZM31.7264 18.5841C29.9961 19.8666 28.655 21.5159 27.706 23.5149L29.5128 24.3726C30.3263 22.6591 31.4602 21.2709 32.9173 20.1909L31.7264 18.5841ZM27.7025 23.5224C26.8073 25.4489 26.1455 27.454 25.7174 29.5361L27.6764 29.9389C28.0733 28.0085 28.6864 26.1511 29.5163 24.3651L27.7025 23.5224ZM25.716 29.5432C25.309 31.5975 25.1063 33.7158 25.1063 35.8969H27.1063C27.1063 33.8404 27.2973 31.8525 27.6778 29.9318L25.716 29.5432ZM25.1063 35.8969C25.1063 40.7961 26.3438 44.9814 28.8753 48.39L30.4809 47.1975C28.25 44.1936 27.1063 40.4477 27.1063 35.8969H25.1063ZM28.8753 48.39C31.4689 51.8821 35.3269 53.7032 40.2899 53.9395L40.3851 51.9417C35.8981 51.7281 32.6499 50.1178 30.4809 47.1975L28.8753 48.39ZM40.3866 53.9394C45.2088 53.7023 49.077 51.8874 51.8835 48.4549L50.3352 47.1889C47.9293 50.1314 44.6162 51.729 40.2884 51.9418L40.3866 53.9394ZM51.1094 48.8219C51.5946 48.8219 51.9943 48.9749 52.3543 49.2977L53.6894 47.8085C52.962 47.1563 52.0867 46.8219 51.1094 46.8219V48.8219ZM52.3689 49.3105C52.7157 49.6094 52.8375 49.9048 52.8375 50.2406H54.8375C54.8375 49.264 54.4156 48.4343 53.6748 47.7957L52.3689 49.3105ZM53.0133 49.6743C51.2296 52.2704 48.818 54.2548 45.7508 55.6279L46.568 57.4533C49.9508 55.9389 52.6579 53.7233 54.6617 50.8069L53.0133 49.6743ZM45.7508 55.6279C42.6317 57.0242 39.6583 57.7062 36.8219 57.7062V59.7062C39.9855 59.7062 43.237 58.9445 46.568 57.4533L45.7508 55.6279ZM36.8219 57.7062C35.0275 57.7062 33.2006 57.491 31.3394 57.0573L30.8856 59.0052C32.887 59.4715 34.8662 59.7062 36.8219 59.7062V57.7062ZM31.3325 57.0557C29.5232 56.6478 27.6205 55.9153 25.6227 54.8438L24.6773 56.6062C26.8046 57.7472 28.8769 58.5522 30.8925 59.0068L31.3325 57.0557ZM25.6322 54.8489C23.678 53.7732 21.9516 52.4399 20.4491 50.848L18.9946 52.2208C20.6422 53.9663 22.5345 55.4268 24.6678 56.601L25.6322 54.8489ZM20.4491 50.848C18.9872 49.299 17.7658 47.2402 16.8072 44.6358L14.9303 45.3266C15.9593 48.1223 17.3066 50.4322 18.9946 52.2208L20.4491 50.848ZM16.808 44.6379C15.8601 42.0446 15.3781 39.1349 15.3781 35.8969H13.3781C13.3781 39.3338 13.8899 42.4804 14.9295 45.3245L16.808 44.6379ZM15.3781 35.8969C15.3781 32.5072 15.8793 29.5174 16.8608 26.9119L14.9892 26.2068C13.9082 29.0764 13.3781 32.3115 13.3781 35.8969H15.3781ZM16.8616 26.9098C17.857 24.2493 19.1134 22.176 20.6058 20.6489L19.1755 19.2511C17.4429 21.0239 16.0555 23.357 14.9884 26.2089L16.8616 26.9098ZM20.6058 20.6489C22.1378 19.0814 23.9316 17.7768 25.9941 16.7366L25.0934 14.9509C22.8435 16.0856 20.8685 17.5186 19.1755 19.2511L20.6058 20.6489ZM26.0002 16.7335C28.0869 15.6629 30.0884 14.9483 32.0065 14.5754L31.6248 12.6121C29.4929 13.0267 27.3131 13.8121 25.0873 14.954L26.0002 16.7335ZM32.0135 14.574C33.9928 14.1745 35.9797 13.975 37.975 13.975V11.975C35.8453 11.975 33.726 12.188 31.6178 12.6135L32.0135 14.574ZM37.975 13.975C40.6997 13.975 43.6807 14.3384 46.9221 15.0751L47.3654 13.1249C44.0068 12.3616 40.8753 11.975 37.975 11.975V13.975ZM46.9221 15.0751C50.223 15.8253 52.6254 16.3036 54.1008 16.4977L54.3617 14.5148C52.9871 14.3339 50.6645 13.8747 47.3654 13.1249L46.9221 15.0751ZM53.2625 15.2584C52.6259 17.7469 52.3615 19.9867 52.5026 21.9619L54.4975 21.8194C54.3761 20.1196 54.5991 18.1031 55.2001 15.7541L53.2625 15.2584ZM52.5026 21.9626C52.6428 23.9052 53.2074 26.2305 54.1606 28.9186L56.0456 28.2501C55.1239 25.6508 54.6197 23.5135 54.4974 21.8186L52.5026 21.9626ZM54.2057 28.1432C53.8361 28.8952 53.155 29.4062 51.9417 29.5929L52.2458 31.5696C53.9576 31.3063 55.2827 30.4861 56.0006 29.0255L54.2057 28.1432Z" fill="white"/>
</g>
<defs>
<filter id="filter0_b_48_59" x="29.5836" y="26.8313" width="44.8054" height="53.3063" filterUnits="userSpaceOnUse" color-interpolation-filters="sRGB">
<feFlood flood-opacity="0" result="BackgroundImageFix"/>
<feGaussianBlur in="BackgroundImageFix" stdDeviation="2.4"/>
<feComposite in2="SourceAlpha" operator="in" result="effect1_backgroundBlur_48_59"/>
<feBlend mode="normal" in="SourceGraphic" in2="effect1_backgroundBlur_48_59" result="shape"/>
</filter>
<filter id="filter1_b_48_59" x="9.57811" y="8.17501" width="50.325" height="55.3312" filterUnits="userSpaceOnUse" color-interpolation-filters="sRGB">
<feFlood flood-opacity="0" result="BackgroundImageFix"/>
<feGaussianBlur in="BackgroundImageFix" stdDeviation="2.4"/>
<feComposite in2="SourceAlpha" operator="in" result="effect1_backgroundBlur_48_59"/>
<feBlend mode="normal" in="SourceGraphic" in2="effect1_backgroundBlur_48_59" result="shape"/>
</filter>
</defs>
</svg>
