<?xml version="1.0" standalone="no"?>
<!DOCTYPE svg PUBLIC "-//W3C//DTD SVG 20010904//EN"
 "http://www.w3.org/TR/2001/REC-SVG-20010904/DTD/svg10.dtd">
<svg version="1.0" xmlns="http://www.w3.org/2000/svg"
 width="64.000000pt" height="64.000000pt" viewBox="0 0 64.000000 64.000000"
 preserveAspectRatio="xMidYMid meet">

<g transform="translate(0.000000,64.000000) scale(0.100000,-0.100000)"
fill="#000000" stroke="none">
<path d="M105 625 c-92 -33 -108 -84 -103 -329 3 -203 12 -231 78 -271 32 -18
52 -20 240 -20 231 0 254 6 295 75 18 32 20 52 20 240 0 188 -2 208 -20 240
-40 67 -66 75 -280 77 -146 2 -199 0 -230 -12z m154 -160 c26 -13 41 -33 41
-56 0 -15 -47 -10 -54 6 -9 25 -55 19 -62 -9 -3 -13 -15 -29 -27 -35 l-22 -11
23 6 c17 4 22 1 22 -14 0 -13 -9 -22 -25 -26 -30 -8 -48 1 -38 17 4 7 6 23 5
37 -5 42 49 97 96 99 7 1 26 -6 41 -14z m251 0 c14 -8 21 -14 16 -15 -4 0 2
-9 15 -19 28 -22 24 -28 -19 -37 -28 -6 -32 -4 -32 14 0 11 6 23 13 25 7 4 6
6 -4 6 -9 1 -22 8 -29 16 -19 23 -39 18 -58 -14 -16 -28 -82 -60 -82 -39 0 60
115 100 180 63z m-116 -89 c-7 -18 -74 -27 -74 -9 0 12 58 34 72 26 4 -2 5
-10 2 -17z m169 -36 c-1 -28 -10 -51 -24 -66 -22 -24 -22 -24 -3 -38 15 -12
17 -18 8 -33 -17 -28 -49 -27 -72 1 -11 15 -30 26 -41 26 -53 0 -122 68 -107
106 8 21 63 18 70 -4 3 -9 16 -22 28 -27 13 -6 28 -21 34 -33 15 -31 24 -16
33 51 5 44 10 52 31 58 39 11 45 5 43 -41z m-376 -50 c12 -32 40 -40 49 -15 4
9 19 15 36 15 26 0 29 -3 23 -22 -17 -58 -93 -77 -139 -35 -34 30 -44 73 -19
80 34 9 39 7 50 -23z"/>
<path d="M426 261 c-3 -5 1 -11 9 -15 8 -3 15 -1 15 4 0 13 -18 22 -24 11z"/>
</g>
</svg>
